<!DOCTYPE svg PUBLIC "-//W3C//DTD SVG 1.1//EN" "http://www.w3.org/Graphics/SVG/1.1/DTD/svg11.dtd">
<!-- Uploaded to: SVG Repo, www.svgrepo.com, Transformed by: SVG Repo Mixer Tools -->
<svg version="1.1" id="Uploaded to svgrepo.com" xmlns="http://www.w3.org/2000/svg" xmlns:xlink="http://www.w3.org/1999/xlink" width="800px" height="800px" viewBox="-3.2 -3.2 38.40 38.40" xml:space="preserve" fill="#000000" transform="rotate(0)">
<g id="SVGRepo_bgCarrier" stroke-width="0" transform="translate(16,16), scale(0)">
<rect x="-3.2" y="-3.2" width="38.40" height="38.40" rx="19.2" fill="#ffffff" strokewidth="0"/>
</g>
<g id="SVGRepo_tracerCarrier" stroke-linecap="round" stroke-linejoin="round" stroke="#CCCCCC" stroke-width="2.88"> <style type="text/css"> .pictogram_zes{fill:#0C6667;} .pictogram_een{fill:#F4D6B0;} .pictogram_vier{fill:#E54D2E;} .st0{fill:#F8AD89;} .st1{fill:#01A59C;} .st2{fill:none;} .st3{fill:#F27261;} </style> <g> <path class="pictogram_een" d="M16,0C7.163,0,0,7.163,0,16s7.163,16,16,16V16V0z"/> <path class="pictogram_vier" d="M32,16c0-8.837-7.163-16-16-16v16H32z"/> <path class="pictogram_zes" d="M16,16v16c8.837,0,16-7.163,16-16H16z"/> </g> </g>
<g id="SVGRepo_iconCarrier"> <style type="text/css"> .pictogram_zes{fill:#0C6667;} .pictogram_een{fill:#F4D6B0;} .pictogram_vier{fill:#E54D2E;} .st0{fill:#F8AD89;} .st1{fill:#01A59C;} .st2{fill:none;} .st3{fill:#F27261;} </style> <g> <path class="pictogram_een" d="M16,0C7.163,0,0,7.163,0,16s7.163,16,16,16V16V0z"/> <path class="pictogram_vier" d="M32,16c0-8.837-7.163-16-16-16v16H32z"/> <path class="pictogram_zes" d="M16,16v16c8.837,0,16-7.163,16-16H16z"/> </g> </g>
</svg>